<?xml version="1.0"?>
<svg xmlns="http://www.w3.org/2000/svg" id="Layer_1" enable-background="new 0 0 512 512" height="512px" viewBox="0 0 512 512" width="512px"><g><path d="m424.69 4.545c-7.983-9.167-23.053-3.54-23.053 8.6v36.749c-18.023-11.157-41.155-11.554-59.734.164v-36.913c0-12.148-15.076-17.76-23.053-8.599-16.113 18.5-23.167 36.73-20.967 54.185 2.076 16.462 11.943 27.502 17.482 32.516-.784 5.706-.554-6.888-.554 170.858 0 21.674-17.533 39.069-39.029 39.069-15.32 0-160.66-.002-167.826-.002-14.76 0-28.61 7.891-36.145 20.592-7.229 12.187-7.86 34.337-1.351 47.401 4.304 8.634 16.425 9.195 21.417.94 3.929-6.49 13.07-18.283 30.165-24.351 4.159-1.476 8.573-2.468 13.182-2.985v151.731c0 9.649 7.85 17.5 17.5 17.5h13.96c9.649 0 17.5-7.85 17.5-17.5v-64.539h154.617v64.539c0 9.649 7.85 17.5 17.5 17.5h13.969c9.649 0 17.5-7.85 17.5-17.5v-66.357c26.901-7.399 40.929-37.515 40.929-65.521v-155.268c0-4.142-3.357-7.5-7.5-7.5-4.142 0-7.5 3.358-7.5 7.5v155.269c0 23.634-11.809 49.067-34.379 51.949-3.744.478-6.55 3.664-6.55 7.439v36.49h-18.969v-36.039c0-4.142-3.357-7.5-7.5-7.5h-169.616c-4.142 0-7.5 3.358-7.5 7.5v36.039h-18.96v-123.441c.002-.071.011-.141.011-.213s-.009-.141-.011-.213v-18.46h18.96v15.282c0 4.142 3.357 7.5 7.5 7.5s7.5-3.358 7.5-7.5v-15.282c99.433 0 96.37.639 105.668-1.864v38.373c0 15.064-12.256 27.319-27.32 27.319h-51.028c-12.485 0-23.368-8.432-26.465-20.505-1.028-4.011-5.111-6.432-9.129-5.401-4.012 1.029-6.43 5.116-5.4 9.128 4.8 18.71 21.658 31.777 40.994 31.777h51.028c23.336 0 42.319-18.984 42.319-42.319v-45.004c15.502-9.889 24.959-26.952 24.959-45.574v-153.096h14.92c4.142 0 7.5-3.358 7.5-7.5s-3.357-7.5-7.5-7.5h-14.6c2.521-21.021 20.233-37.61 41.63-37.61 21.664 0 39.542 16.511 41.716 37.61h-14.687c-4.142 0-7.5 3.358-7.5 7.5s3.357 7.5 7.5 7.5h14.91v68.346c0 4.142 3.357 7.5 7.5 7.5s7.5-3.358 7.5-7.5c0-86.858.191-80.957-.464-86.161 22.083-20.051 26.578-52.061-3.546-86.648zm-289.464 323.151c-6.349.577-12.448 1.881-18.2 3.923-17.835 6.33-28.812 17.671-34.866 26.033-2.267-8.979-1.334-21.683 2.553-28.234 4.848-8.17 13.754-13.246 23.245-13.246h27.269v11.524zm218.575 145.805h18.969v21c0 1.378-1.121 2.5-2.5 2.5h-13.969c-1.379 0-2.5-1.122-2.5-2.5zm-184.616 0v21c0 1.378-1.121 2.5-2.5 2.5h-13.96c-1.379 0-2.5-1.122-2.5-2.5v-21zm151.117-398.958c-13.912-18.096-7.729-38.211 6.601-56.236 0 47.522-.031 44.622.056 45.37-2.59 3.352-4.836 6.988-6.657 10.866zm103.082-.189c-1.84-3.944-4.119-7.64-6.773-11.032.041-.591.027-44.423.027-45.016 14.29 17.978 20.461 38.009 6.746 56.048z" data-original="#000000" class="active-path" data-old_color="#000000" fill="#404040"/><path d="m358.327 152.211c0-4.142-3.357-7.5-7.5-7.5s-7.5 3.358-7.5 7.5c0 15.694 12.76 28.462 28.443 28.462s28.443-12.768 28.443-28.462c0-4.142-3.357-7.5-7.5-7.5s-7.5 3.358-7.5 7.5c0 4.644-2.361 8.746-5.943 11.167v-16.599c1.875-1.189 3.472-2.831 4.64-4.854l6.319-10.953c5.388-9.345-1.348-21.017-12.14-21.017h-12.635c-10.79 0-17.531 11.669-12.14 21.017 6.693 11.603 7.303 13.491 10.958 15.807v16.599c-3.584-2.421-5.945-6.523-5.945-11.167zm18.056-27.257-4.613 7.996-4.612-7.996z" data-original="#000000" class="active-path" data-old_color="#000000" fill="#404040"/></g> </svg>
